<svg width="55" height="57" viewBox="0 0 55 57" fill="none" xmlns="http://www.w3.org/2000/svg">
<path fill-rule="evenodd" clip-rule="evenodd" d="M34.4609 0V43.6154L51.1532 26.6671V0H34.4609Z" fill="#9100F2"/>
<path fill-rule="evenodd" clip-rule="evenodd" d="M34.4616 43.6079L16.7898 25.8462V50.7385H16.6924L21.9046 56L34.4616 43.6079Z" fill="#C42CF2"/>
<path fill-rule="evenodd" clip-rule="evenodd" d="M16.6922 50.6154V25.8462L4.30762 38.0916L16.6922 50.6154Z" fill="#6400D6"/>
<path fill-rule="evenodd" clip-rule="evenodd" d="M4.4276 38.2306L16.6923 25.8936L0 8.61523V33.6777L4.4276 38.2306Z" fill="#9100F2"/>
<path fill-rule="evenodd" clip-rule="evenodd" d="M0 8.51797L16.6923 25.8462V0H0V8.51797Z" fill="#6400D6"/>
<path fill-rule="evenodd" clip-rule="evenodd" d="M34.4609 9.73361L51.1532 26.3846V0H34.4609V9.73361Z" fill="#9100F2"/>
<path fill-rule="evenodd" clip-rule="evenodd" d="M34.4609 26.3847H51.1532L34.4609 9.69238V26.3847Z" fill="#6400D6"/>
<path fill-rule="evenodd" clip-rule="evenodd" d="M44.6917 0H34.4609V9.69231L44.6917 0Z" fill="#C42CF2"/>
<path fill-rule="evenodd" clip-rule="evenodd" d="M0 0V8.61539L8.61539 0H0Z" fill="#9108EF"/>
</svg>
