<svg width="16" height="16" viewBox="0 0 16 16" fill="none" xmlns="http://www.w3.org/2000/svg">
<path d="M5.33325 6.6665L10.6666 6.6665" stroke="#9100F2" stroke-linecap="round" stroke-linejoin="round"/>
<path d="M4.66675 9.3335L5.33341 9.3335" stroke="#9100F2" stroke-linecap="round" stroke-linejoin="round"/>
<path d="M10.6667 9.3335L11.3334 9.3335" stroke="#9100F2" stroke-linecap="round" stroke-linejoin="round"/>
<path d="M12.3463 3.47461L11.8868 3.67157L12.3463 3.47461ZM13.8922 7.08162L13.4326 7.27858L13.8922 7.08162ZM3.1941 3.27765L1.64823 6.88466L2.56738 7.27858L4.11324 3.67157L3.1941 3.27765ZM14.3518 6.88466L12.8059 3.27765L11.8868 3.67157L13.4326 7.27858L14.3518 6.88466ZM11.1208 2.1665H4.87919V3.1665H11.1208V2.1665ZM1.5 7.60685V11.9998H2.5V7.60685H1.5ZM14.5 11.9998V7.60685H13.5V11.9998H14.5ZM1.5 11.9998V13.5998H2.5V11.9998H1.5ZM2.4 14.4998H4.26667V13.4998H2.4V14.4998ZM4.66667 11.4998H2V12.4998H4.66667V11.4998ZM5.16667 13.5998V11.9998H4.16667V13.5998H5.16667ZM13.5 11.9998V13.5998H14.5V11.9998H13.5ZM13.6 13.4998H11.7333V14.4998H13.6V13.4998ZM14 11.4998H11.3333V12.4998H14V11.4998ZM11.3333 11.4998H4.66667V12.4998H11.3333V11.4998ZM11.8333 13.5998V11.9998H10.8333V13.5998H11.8333ZM11.7333 13.4998C11.7886 13.4998 11.8333 13.5446 11.8333 13.5998H10.8333C10.8333 14.0969 11.2363 14.4998 11.7333 14.4998V13.4998ZM13.5 13.5998C13.5 13.5446 13.5448 13.4998 13.6 13.4998V14.4998C14.0971 14.4998 14.5 14.0969 14.5 13.5998H13.5ZM4.26667 14.4998C4.76372 14.4998 5.16667 14.0969 5.16667 13.5998H4.16667C4.16667 13.5446 4.21144 13.4998 4.26667 13.4998V14.4998ZM12.8059 3.27765C12.517 2.60357 11.8542 2.1665 11.1208 2.1665V3.1665C11.4542 3.1665 11.7554 3.36517 11.8868 3.67157L12.8059 3.27765ZM4.11324 3.67157C4.24456 3.36517 4.54584 3.1665 4.87919 3.1665V2.1665C4.14581 2.1665 3.48299 2.60356 3.1941 3.27765L4.11324 3.67157ZM1.5 13.5998C1.5 14.0969 1.90294 14.4998 2.4 14.4998V13.4998C2.45523 13.4998 2.5 13.5446 2.5 13.5998H1.5ZM13.4326 7.27858C13.4771 7.38231 13.5 7.49399 13.5 7.60685H14.5C14.5 7.35856 14.4496 7.11287 14.3518 6.88466L13.4326 7.27858ZM1.64823 6.88466C1.55043 7.11287 1.5 7.35856 1.5 7.60685H2.5C2.5 7.49399 2.52292 7.38231 2.56738 7.27858L1.64823 6.88466Z" fill="#9100F2"/>
</svg>
