<svg width="24" height="24" viewBox="0 0 24 24" fill="none" xmlns="http://www.w3.org/2000/svg">
<path d="M7 9.01L7.01 8.99889" stroke="#9100F2" stroke-width="1.5" stroke-linecap="round" stroke-linejoin="round"/>
<path d="M11 9.01L11.01 8.99889" stroke="#9100F2" stroke-width="1.5" stroke-linecap="round" stroke-linejoin="round"/>
<path d="M7 13.01L7.01 12.9989" stroke="#9100F2" stroke-width="1.5" stroke-linecap="round" stroke-linejoin="round"/>
<path d="M11 13.01L11.01 12.9989" stroke="#9100F2" stroke-width="1.5" stroke-linecap="round" stroke-linejoin="round"/>
<path d="M7 17.01L7.01 16.9989" stroke="#9100F2" stroke-width="1.5" stroke-linecap="round" stroke-linejoin="round"/>
<path d="M11 17.01L11.01 16.9989" stroke="#9100F2" stroke-width="1.5" stroke-linecap="round" stroke-linejoin="round"/>
<path d="M9 5V5.75C9.41421 5.75 9.75 5.41421 9.75 5H9ZM17 13.75C17.4142 13.75 17.75 13.4142 17.75 13C17.75 12.5858 17.4142 12.25 17 12.25V13.75ZM17 17.75C17.4142 17.75 17.75 17.4142 17.75 17C17.75 16.5858 17.4142 16.25 17 16.25V17.75ZM2.25 5.6V20.4H3.75V5.6H2.25ZM3.6 21.75H15V20.25H3.6V21.75ZM9 4.25H3.6V5.75H9V4.25ZM9.75 5V3.6H8.25V5H9.75ZM9.6 3.75H14.4V2.25H9.6V3.75ZM15.75 9V3.6H14.25V9H15.75ZM15 9.75H20.4V8.25H15V9.75ZM20.25 9.6V20.4H21.75V9.6H20.25ZM20.4 20.25H15V21.75H20.4V20.25ZM15.75 13V9H14.25V13H15.75ZM15 13.75H17V12.25H15V13.75ZM15.75 21V17H14.25V21H15.75ZM15.75 17V13H14.25V17H15.75ZM15 17.75H17V16.25H15V17.75ZM20.25 20.4C20.25 20.3172 20.3172 20.25 20.4 20.25V21.75C21.1456 21.75 21.75 21.1456 21.75 20.4H20.25ZM14.4 3.75C14.3172 3.75 14.25 3.68284 14.25 3.6H15.75C15.75 2.85442 15.1456 2.25 14.4 2.25V3.75ZM9.75 3.6C9.75 3.68284 9.68284 3.75 9.6 3.75V2.25C8.85442 2.25 8.25 2.85442 8.25 3.6H9.75ZM20.4 9.75C20.3172 9.75 20.25 9.68284 20.25 9.6H21.75C21.75 8.85442 21.1456 8.25 20.4 8.25V9.75ZM2.25 20.4C2.25 21.1456 2.85442 21.75 3.6 21.75V20.25C3.68284 20.25 3.75 20.3172 3.75 20.4H2.25ZM3.75 5.6C3.75 5.68284 3.68284 5.75 3.6 5.75V4.25C2.85442 4.25 2.25 4.85442 2.25 5.6H3.75Z" fill="#9100F2"/>
</svg>
