<svg width="24" height="24" viewBox="0 0 24 24" fill="none" xmlns="http://www.w3.org/2000/svg">
<path d="M12 22C17.5228 22 22 17.5228 22 12C22 6.47715 17.5228 2 12 2C6.47715 2 2 6.47715 2 12C2 17.5228 6.47715 22 12 22Z" stroke="#9100F2" stroke-width="1.5" stroke-linecap="round" stroke-linejoin="round"/>
<path d="M14.4697 9.03033C14.7626 9.32322 15.2374 9.32322 15.5303 9.03033C15.8232 8.73744 15.8232 8.26256 15.5303 7.96967L14.4697 9.03033ZM9.6 14.55C9.35147 14.2186 8.88137 14.1515 8.55 14.4C8.21863 14.6485 8.15147 15.1186 8.4 15.45L9.6 14.55ZM12.75 5.5C12.75 5.08579 12.4142 4.75 12 4.75C11.5858 4.75 11.25 5.08579 11.25 5.5H12.75ZM11.25 18.5C11.25 18.9142 11.5858 19.25 12 19.25C12.4142 19.25 12.75 18.9142 12.75 18.5H11.25ZM8.75 9.50001C8.75 9.99538 8.86527 10.4357 9.09233 10.816C9.31679 11.1921 9.62636 11.4694 9.95672 11.6796C10.5875 12.081 11.397 12.2947 12.0527 12.4736C12.772 12.6697 13.3375 12.831 13.738 13.0859C13.9232 13.2038 14.0434 13.3249 14.1197 13.4528C14.1934 13.5763 14.25 13.7454 14.25 14H15.75C15.75 13.5046 15.6347 13.0644 15.4077 12.684C15.1832 12.3079 14.8736 12.0306 14.5433 11.8204C13.9125 11.419 13.103 11.2053 12.4473 11.0264C11.728 10.8303 11.1625 10.669 10.762 10.4141C10.5768 10.2962 10.4566 10.1751 10.3803 10.0472C10.3066 9.92373 10.25 9.75463 10.25 9.50001H8.75ZM15.5303 7.96967C14.6886 7.12792 13.2887 6.59313 12.0202 6.55899L11.9798 8.05845C12.9286 8.08398 13.9414 8.50209 14.4697 9.03033L15.5303 7.96967ZM12.0202 6.55899C11.257 6.53845 10.4435 6.69642 9.80249 7.18193C9.13015 7.69119 8.75 8.48349 8.75 9.50001H10.25C10.25 8.8865 10.4603 8.5654 10.7082 8.37765C10.9874 8.16616 11.4239 8.04349 11.9798 8.05845L12.0202 6.55899ZM12.75 7.30872V5.5H11.25V7.30872H12.75ZM14.25 14C14.25 14.6092 14.0047 14.9922 13.6458 15.2435C13.2567 15.516 12.681 15.665 12.0269 15.6415L11.9731 17.1405C12.8552 17.1722 13.7794 16.9812 14.5063 16.4722C15.2634 15.942 15.75 15.1018 15.75 14H14.25ZM12.0269 15.6415C11.0251 15.6055 10.0709 15.1779 9.6 14.55L8.4 15.45C9.21803 16.5407 10.6604 17.0933 11.9731 17.1405L12.0269 15.6415ZM11.25 16.391V18.5H12.75V16.391H11.25Z" fill="#9100F2"/>
</svg>
