<svg width="40" height="40" viewBox="0 0 40 40" fill="none" xmlns="http://www.w3.org/2000/svg">
<path d="M37.5017 20.3888C37.5017 18.9499 37.3826 17.8999 37.1247 16.811H20.3589V23.3054H30.2001C30.0017 24.9193 28.9303 27.3499 26.5493 28.9832L26.5159 29.2006L31.817 33.2251L32.1843 33.261C35.5572 30.2082 37.5017 25.7165 37.5017 20.3888Z" fill="#4285F4"/>
<path d="M20.3579 37.5C25.1792 37.5 29.2268 35.9443 32.1832 33.261L26.5483 28.9831C25.0404 30.0137 23.0165 30.7331 20.3579 30.7331C15.6357 30.7331 11.6278 27.6804 10.1991 23.4609L9.9897 23.4784L4.4776 27.659L4.40552 27.8554C7.34198 33.572 13.3737 37.5 20.3579 37.5Z" fill="#34A853"/>
<path d="M10.2002 23.4614C9.82318 22.3726 9.60501 21.2058 9.60501 20.0003C9.60501 18.7947 9.82318 17.6281 10.1803 16.5392L10.1703 16.3073L4.58915 12.0596L4.40655 12.1447C3.19628 14.5169 2.50183 17.1809 2.50183 20.0003C2.50183 22.8198 3.19628 25.4836 4.40655 27.8558L10.2002 23.4614Z" fill="#FBBC05"/>
<path d="M20.358 9.26662C23.7111 9.26662 25.973 10.6861 27.2627 11.8722L32.3024 7.05C29.2072 4.23056 25.1793 2.5 20.358 2.5C13.3738 2.5 7.342 6.42775 4.40552 12.1444L10.1793 16.5389C11.6279 12.3194 15.6358 9.26662 20.358 9.26662Z" fill="#EB4335"/>
</svg>
