<svg width="25" height="23" viewBox="0 0 25 23" fill="none" xmlns="http://www.w3.org/2000/svg">
<path d="M12.4947 16C14.6981 16 16.4843 14.2091 16.4843 12C16.4843 9.79086 14.6981 8 12.4947 8C10.2913 8 8.50513 9.79086 8.50513 12C8.50513 14.2091 10.2913 16 12.4947 16Z" stroke="#4F00D6" stroke-width="1.47143" stroke-linecap="round" stroke-linejoin="round"/>
<path d="M3.52588 16.0952V7.90476C3.52588 5.19594 5.72182 3 8.43064 3H16.6211C19.3299 3 21.5259 5.19594 21.5259 7.90476V16.0952C21.5259 18.8041 19.3299 21 16.6211 21H8.43064C5.72182 21 3.52588 18.8041 3.52588 16.0952Z" stroke="#4F00D6" stroke-width="1.47143"/>
<path d="M18.479 7.01L18.489 6.99889" stroke="#4F00D6" stroke-width="1.47143" stroke-linecap="round" stroke-linejoin="round"/>
</svg>
