<svg width="24" height="24" viewBox="0 0 24 24" fill="none" xmlns="http://www.w3.org/2000/svg">
<path d="M6.6 20.75H17.4V19.25H6.6V20.75ZM18.75 19.4V12.6H17.25V19.4H18.75ZM5.25 12.6V19.4H6.75V12.6H5.25ZM16 12.75H17.4V11.25H16V12.75ZM16.75 12V8H15.25V12H16.75ZM16.75 8C16.75 7.21332 16.5202 6.04998 15.8087 5.06177C15.0696 4.03532 13.8444 3.25 12 3.25V4.75C13.3556 4.75 14.1304 5.29802 14.5913 5.93823C15.0798 6.61668 15.25 7.45335 15.25 8H16.75ZM12 3.25C10.1556 3.25 8.9304 4.03532 8.19135 5.06177C7.47984 6.04998 7.25 7.21332 7.25 8H8.75C8.75 7.45335 8.92016 6.61668 9.40865 5.93823C9.8696 5.29802 10.6444 4.75 12 4.75V3.25ZM6.6 12.75H8V11.25H6.6V12.75ZM8 12.75H16V11.25H8V12.75ZM7.25 8V12H8.75V8H7.25ZM6.75 12.6C6.75 12.6828 6.68284 12.75 6.6 12.75V11.25C5.85442 11.25 5.25 11.8544 5.25 12.6H6.75ZM18.75 12.6C18.75 11.8544 18.1456 11.25 17.4 11.25V12.75C17.3172 12.75 17.25 12.6828 17.25 12.6H18.75ZM17.4 20.75C18.1456 20.75 18.75 20.1456 18.75 19.4H17.25C17.25 19.3172 17.3172 19.25 17.4 19.25V20.75ZM6.6 19.25C6.68284 19.25 6.75 19.3172 6.75 19.4H5.25C5.25 20.1456 5.85442 20.75 6.6 20.75V19.25Z" fill="#4F00D6"/>
</svg>
