<svg width="729" height="667" viewBox="0 0 729 667" fill="none" xmlns="http://www.w3.org/2000/svg">
<g style="mix-blend-mode:darken" opacity="0.05" clip-path="url(#clip0_1_2342)">
<path opacity="0.85" d="M726.763 375.955L490.053 610.049V1.47177H726.763V375.955Z" stroke="#9100F2" stroke-width="2.94379"/>
<path opacity="0.85" d="M311.612 786.473L241.155 715.224V714.43V366.134L486.175 613.888L311.612 786.473Z" stroke="#9100F2" stroke-width="2.94379"/>
<path opacity="0.85" d="M65.638 537.754L238.212 367.085V712.247L65.638 537.754Z" stroke="#9100F2" stroke-width="2.94379"/>
<path opacity="0.85" d="M238.117 363.037L63.5682 535.661L1.4719 472.845V123.747L238.117 363.037Z" stroke="#9100F2" stroke-width="2.94379"/>
<path opacity="0.85" d="M1.4719 119.561V1.47177H238.212V358.946L1.4719 119.561Z" stroke="#9100F2" stroke-width="2.94379"/>
<path opacity="0.85" d="M726.151 376.572L490.053 137.812V1.47177H726.763V375.96L726.151 376.572Z" stroke="#9100F2" stroke-width="2.94379"/>
<path opacity="0.85" d="M490.053 141.999L719.175 373.714H490.053V141.999Z" stroke="#9100F2" stroke-width="2.94379"/>
<path opacity="0.85" d="M490.053 1.47177H631.333L493.291 141.092L490.053 137.813V1.47177Z" stroke="#9100F2" stroke-width="2.94379"/>
<path opacity="0.85" d="M114.726 1.47177L1.4719 115.995V1.47177H114.726Z" stroke="#9100F2" stroke-width="2.94379"/>
</g>
<defs>
<clipPath id="clip0_1_2342">
<rect width="728.235" height="788.553" fill="white"/>
</clipPath>
</defs>
</svg>
