<svg width="123" height="34" viewBox="0 0 123 34" fill="none" xmlns="http://www.w3.org/2000/svg">
<g clip-path="url(#clip0_454_6871)">
<path d="M34.9097 15.3652H36.125L38.2116 20.6621L40.3015 15.3652H41.4349L38.7291 21.9037H37.6318L34.9097 15.3652Z" fill="#6400D6"/>
<path d="M43.5559 13.7087C43.3223 13.7087 43.1271 13.6321 42.9738 13.4788C42.8204 13.3255 42.7402 13.1322 42.7402 12.9022C42.7402 12.6689 42.8169 12.4756 42.9738 12.3257C43.1271 12.1724 43.3223 12.0957 43.5559 12.0957C43.7894 12.0957 43.9846 12.1724 44.138 12.3257C44.2914 12.479 44.3715 12.6723 44.3715 12.9022C44.3715 13.1355 44.2948 13.3288 44.138 13.4788C43.9846 13.6321 43.7929 13.7087 43.5559 13.7087ZM42.9668 15.5083H44.1624V22.2303H42.9668V15.5083Z" fill="#6400D6"/>
<path d="M48.9641 22.5579C48.2284 22.5579 47.6887 22.3555 47.345 21.9508C46.9981 21.5462 46.8278 20.9093 46.8278 20.0435V16.6335H45.3501V15.6582H46.8278V13.731H47.9297V15.6582H50.1976V16.6335H47.9297V19.9506C47.9297 20.5212 48.026 20.9325 48.2156 21.1879C48.4051 21.4433 48.7199 21.5694 49.16 21.5694C49.5744 21.5694 50.0017 21.4533 50.4418 21.2211L50.5703 22.1698C50.1655 22.4285 49.629 22.5579 48.9641 22.5579Z" fill="#6400D6"/>
<path d="M52.2014 15.4626H53.2749L53.2882 16.8692C53.4743 16.3892 53.7469 16.0199 54.1058 15.758C54.4647 15.4962 54.8702 15.3652 55.3255 15.3652C55.4585 15.3652 55.6047 15.382 55.7609 15.4122C55.9171 15.4425 56.0368 15.476 56.1165 15.513L55.9969 16.5973C55.7377 16.4899 55.4685 16.4362 55.1926 16.4362C54.611 16.4362 54.159 16.6544 53.8333 17.0942C53.5076 17.5306 53.3447 18.1349 53.3447 18.9003V22.2306H52.2047V15.4626H52.2014Z" fill="#6400D6"/>
<path d="M58.237 13.7087C58.0035 13.7087 57.8083 13.6321 57.6549 13.4788C57.5016 13.3255 57.4214 13.1322 57.4214 12.9022C57.4214 12.6689 57.4981 12.4756 57.6549 12.3257C57.8083 12.1724 58.0035 12.0957 58.237 12.0957C58.4706 12.0957 58.6658 12.1724 58.8192 12.3257C58.9725 12.479 59.0527 12.6723 59.0527 12.9022C59.0527 13.1355 58.976 13.3288 58.8192 13.4788C58.6658 13.6321 58.4741 13.7087 58.237 13.7087ZM57.648 15.5083H58.8435V22.2303H57.648V15.5083Z" fill="#6400D6"/>
<path d="M61.3369 15.5797H62.3624L62.3751 16.7377C62.5529 16.3022 62.8323 15.9657 63.2069 15.7248C63.5815 15.484 64.0165 15.3652 64.5117 15.3652C65.2705 15.3652 65.8547 15.6127 66.2674 16.1042C66.677 16.5958 66.8833 17.2985 66.8833 18.2123V22.2306H65.7944V18.4136C65.7944 17.7208 65.6674 17.2061 65.4166 16.8696C65.1658 16.5331 64.7784 16.3649 64.2578 16.3649C63.6863 16.3649 63.2386 16.5595 62.9148 16.9488C62.591 17.3381 62.4291 17.8758 62.4291 18.5587V22.2306H61.3401V15.5797H61.3369Z" fill="#6400D6"/>
<path d="M73.9693 18.4179C73.9336 17.7604 73.7487 17.2505 73.4146 16.8882C73.0773 16.5259 72.6134 16.3481 72.0198 16.3481C71.4521 16.3481 70.985 16.5293 70.6184 16.8949C70.2519 17.2606 70.0281 17.7671 69.9502 18.4179H73.9693ZM72.4642 22.5575C71.3483 22.5575 70.466 22.2389 69.814 21.5981C69.1652 20.9574 68.8408 20.0885 68.8408 18.9882C68.8408 18.3106 68.9738 17.7001 69.2398 17.1499C69.5058 16.5997 69.8886 16.1636 70.3849 15.8449C70.8812 15.5263 71.4489 15.3652 72.0846 15.3652C72.967 15.3652 73.6774 15.6705 74.2223 16.2844C74.7673 16.8983 75.0398 17.7001 75.0398 18.693C75.0398 18.8104 75.0365 18.9178 75.0333 19.0184C75.03 19.1191 75.0235 19.2197 75.0138 19.3304H69.9372C70.0151 20.0416 70.2778 20.5884 70.7222 20.9675C71.1666 21.3465 71.7635 21.5344 72.5161 21.5344C73.2849 21.5344 74.0342 21.3499 74.7673 20.9809L74.897 21.9537C74.6018 22.1416 74.2353 22.2925 73.8039 22.3999C73.3724 22.5039 72.9248 22.5575 72.4642 22.5575Z" fill="#6400D6"/>
<path d="M79.0966 22.2306C78.3107 22.2306 77.71 21.9874 77.2944 21.5042C76.8787 21.021 76.6709 20.3205 76.6709 19.406V15.3652H78.4926V19.0655C78.4926 20.1032 78.8887 20.6221 79.6843 20.6221C80.1194 20.6221 80.4572 20.4762 80.6942 20.1843C80.9312 19.8924 81.0481 19.4806 81.0481 18.9487V15.3652H82.8698V22.0231H81.1131L81.1001 21.2123C80.9085 21.5431 80.639 21.7961 80.2948 21.9712C79.9506 22.1431 79.5512 22.2306 79.0966 22.2306Z" fill="#6400D6"/>
<path d="M84.8276 15.4835H86.533L86.5457 16.5977C86.7225 16.2 86.9625 15.8944 87.2657 15.684C87.5657 15.4704 87.9163 15.3652 88.3174 15.3652C88.589 15.3652 88.8385 15.4145 89.069 15.5098L88.9174 17.2451C88.6553 17.1399 88.39 17.0873 88.1279 17.0873C87.6447 17.0873 87.2689 17.2681 87.0004 17.6296C86.732 17.9911 86.5994 18.5005 86.5994 19.1545V22.2306H84.8276V15.4835Z" fill="#6400D6"/>
<path d="M94.233 20.6114C94.7636 20.6114 95.1953 20.4333 95.5282 20.077C95.861 19.7208 96.0258 19.2641 96.0258 18.707C96.0258 18.1402 95.8577 17.6803 95.5216 17.3208C95.1854 16.9645 94.7537 16.7864 94.233 16.7864C93.709 16.7864 93.2806 16.9645 92.9445 17.3208C92.6083 17.6771 92.4402 18.1402 92.4402 18.707C92.4402 19.2641 92.605 19.7208 92.9379 20.077C93.2674 20.4333 93.6992 20.6114 94.233 20.6114ZM94.645 22.2308C94.1737 22.2308 93.7519 22.1369 93.3762 21.9491C93.0005 21.7612 92.7039 21.4989 92.493 21.1588L92.4666 22.0203H90.7002V11.4424H92.549V16.1581C93.0367 15.4974 93.7684 15.1638 94.7405 15.1638C95.3337 15.1638 95.8676 15.3063 96.3422 15.5945C96.8167 15.8828 97.1891 16.2941 97.466 16.8285C97.7395 17.3629 97.8779 17.9815 97.8779 18.6779C97.8779 19.3224 97.7428 19.9119 97.4726 20.4463C97.2023 20.9807 96.82 21.4114 96.3224 21.7385C95.8215 22.0689 95.2645 22.2308 94.645 22.2308Z" fill="#6400D6"/>
<path d="M102.826 20.582C103.351 20.582 103.779 20.4007 104.116 20.0379C104.452 19.6752 104.62 19.2036 104.62 18.6265C104.62 18.0593 104.455 17.5943 104.122 17.2316C103.789 16.8688 103.357 16.6874 102.826 16.6874C102.296 16.6874 101.864 16.8688 101.531 17.2316C101.198 17.5943 101.033 18.0593 101.033 18.6265C101.033 19.2036 101.201 19.6719 101.537 20.0379C101.874 20.4007 102.302 20.582 102.826 20.582ZM102.322 22.2309C101.728 22.2309 101.194 22.0858 100.72 21.7923C100.245 21.4988 99.8722 21.08 99.5952 20.5359C99.3216 19.9917 99.1831 19.3619 99.1831 18.6529C99.1831 17.9966 99.3183 17.3964 99.5886 16.8523C99.859 16.3082 100.241 15.8696 100.739 15.5365C101.237 15.2035 101.794 15.0386 102.414 15.0386C102.876 15.0386 103.295 15.1342 103.67 15.3255C104.046 15.5167 104.346 15.7839 104.567 16.1301L104.594 15.2529H106.361V22.0231H104.594L104.567 21.1591C104.336 21.5153 104.03 21.7824 103.651 21.9638C103.268 22.1418 102.826 22.2309 102.322 22.2309Z" fill="#6400D6"/>
<path d="M107.996 15.2494H109.746L109.758 16.0731C109.95 15.7423 110.219 15.4861 110.562 15.3077C110.906 15.1294 111.311 15.0386 111.771 15.0386C112.555 15.0386 113.154 15.2818 113.569 15.765C113.984 16.2482 114.191 16.9487 114.191 17.8632V21.904H112.373V18.2037C112.373 17.166 111.978 16.6471 111.184 16.6471C110.75 16.6471 110.41 16.793 110.17 17.0849C109.93 17.3768 109.81 17.7886 109.81 18.3205V21.904H107.992V15.2494H107.996Z" fill="#6400D6"/>
<path d="M119.466 20.582C119.99 20.582 120.419 20.4007 120.755 20.0379C121.091 19.6752 121.259 19.2036 121.259 18.6265C121.259 18.0593 121.095 17.5943 120.762 17.2316C120.429 16.8688 119.997 16.6874 119.466 16.6874C118.935 16.6874 118.503 16.8688 118.17 17.2316C117.837 17.5943 117.672 18.0593 117.672 18.6265C117.672 19.2036 117.84 19.6719 118.177 20.0379C118.513 20.4007 118.942 20.582 119.466 20.582ZM118.961 22.2309C118.368 22.2309 117.834 22.0858 117.359 21.7923C116.884 21.4988 116.512 21.08 116.235 20.5359C115.961 19.9917 115.823 19.3619 115.823 18.6529C115.823 17.9966 115.958 17.3964 116.228 16.8523C116.498 16.3082 116.881 15.8696 117.379 15.5365C117.877 15.2035 118.434 15.0386 119.054 15.0386C119.515 15.0386 119.934 15.1342 120.31 15.3255C120.686 15.5167 120.986 15.7839 121.207 16.1301L121.233 15.2529H123V22.0231H121.233L121.207 21.1591C120.976 21.5153 120.669 21.7824 120.29 21.9638C119.911 22.1418 119.466 22.2309 118.961 22.2309Z" fill="#6400D6"/>
<path fill-rule="evenodd" clip-rule="evenodd" d="M20.8806 0V26.4808L30.9947 16.1907V0H20.8806Z" fill="#9100F2"/>
<path fill-rule="evenodd" clip-rule="evenodd" d="M20.8806 26.4763L10.173 15.6924V30.8056H10.114L13.2722 34.0001L20.8806 26.4763Z" fill="#C42CF2"/>
<path fill-rule="evenodd" clip-rule="evenodd" d="M10.1141 30.7308V15.6924L2.61011 23.1271L10.1141 30.7308Z" fill="#6400D6"/>
<path fill-rule="evenodd" clip-rule="evenodd" d="M2.68273 23.2117L10.1141 15.7214L0 5.23096V20.4475L2.68273 23.2117Z" fill="#9100F2"/>
<path fill-rule="evenodd" clip-rule="evenodd" d="M0 5.17163L10.1141 15.6923V0H0V5.17163Z" fill="#6400D6"/>
<path fill-rule="evenodd" clip-rule="evenodd" d="M20.8806 5.90969L30.9947 16.0192V0H20.8806V5.90969Z" fill="#9100F2"/>
<path fill-rule="evenodd" clip-rule="evenodd" d="M20.8806 16.0194H30.9947L20.8806 5.88477V16.0194Z" fill="#6400D6"/>
<path fill-rule="evenodd" clip-rule="evenodd" d="M27.0796 0H20.8806V5.88461L27.0796 0Z" fill="#C42CF2"/>
<path fill-rule="evenodd" clip-rule="evenodd" d="M0 0V5.23077L5.22016 0H0Z" fill="#9108EF"/>
</g>
<defs>
<clipPath id="clip0_454_6871">
<rect width="123" height="34" fill="white"/>
</clipPath>
</defs>
</svg>
