<svg width="14" height="12" viewBox="0 0 14 12" fill="none" xmlns="http://www.w3.org/2000/svg">
<path d="M5.16788 0.399196C5.37446 0.463473 5.59173 0.505334 5.78543 0.596078C6.55559 0.956623 6.95725 1.81977 6.75122 2.63565C6.54491 3.45235 5.77036 4.03516 4.93225 4.0041C4.05798 3.97197 3.32946 3.35539 3.1796 2.5206C3.00014 1.52188 3.68783 0.580954 4.71088 0.424583C4.73636 0.420802 4.76047 0.407568 4.7854 0.398926C4.91253 0.399196 5.0402 0.399196 5.16788 0.399196ZM4.0925 2.20489C4.09305 2.68643 4.48703 3.0756 4.97582 3.07776C5.46186 3.07965 5.85996 2.69156 5.86598 2.20975C5.87228 1.73038 5.46159 1.32527 4.9739 1.32932C4.48539 1.33337 4.09168 1.72443 4.0925 2.20489Z" fill="#9100F2"/>
<path d="M9.21467 0.399414C9.42509 0.466122 9.64674 0.509603 9.84401 0.603318C10.6188 0.971965 11.009 1.85078 10.7813 2.67774C10.5575 3.49065 9.76866 4.05537 8.93137 4.00244C8.04176 3.94599 7.32968 3.30241 7.21516 2.45115C7.08228 1.46296 7.75736 0.576311 8.75657 0.424801C8.78233 0.42102 8.80644 0.408056 8.83137 0.399414C8.95932 0.399414 9.087 0.399414 9.21467 0.399414ZM9.90812 2.20592C9.90921 1.72627 9.51523 1.3344 9.02672 1.32954C8.53903 1.32468 8.12806 1.72952 8.13354 2.20943C8.13902 2.69097 8.53712 3.07933 9.02343 3.07798C9.51194 3.07663 9.90702 2.68719 9.90812 2.20592Z" fill="#9100F2"/>
<path d="M14.0001 5.00646C13.9212 5.21927 13.8706 5.44775 13.7585 5.64193C13.3675 6.319 12.5467 6.6231 11.8036 6.38868C11.0647 6.15561 10.5641 5.44721 10.6214 4.71613C10.685 3.90538 11.2587 3.27746 12.0488 3.15377C12.959 3.01144 13.8221 3.62666 13.9752 4.52654C13.9796 4.55247 13.9917 4.57704 14.0001 4.60216C14.0001 4.73693 14.0001 4.87169 14.0001 5.00646ZM11.5584 4.79715C11.5568 5.20712 11.8995 5.54606 12.3127 5.54282C12.7201 5.53958 13.0598 5.20469 13.0631 4.80309C13.0664 4.40258 12.7283 4.06526 12.3187 4.06067C11.8995 4.05581 11.5603 4.38448 11.5584 4.79715Z" fill="#9100F2"/>
<path d="M7.00302 5.46735C7.32549 5.14948 7.6866 4.93234 8.11785 4.84187C9.00993 4.65471 9.94804 5.0744 10.4335 5.88542C10.9086 6.67916 10.9067 7.5072 10.5733 8.34388C10.2434 9.17165 9.66338 9.81685 8.98363 10.3821C8.45649 10.8207 7.87811 11.1856 7.27727 11.5175C7.10521 11.6126 6.93452 11.6317 6.75835 11.5359C5.86133 11.0468 5.01829 10.485 4.32622 9.72989C3.78702 9.14167 3.37742 8.48135 3.23769 7.68545C3.03275 6.51928 3.59743 5.38957 4.64102 4.96475C5.45365 4.63418 6.20052 4.77975 6.86603 5.34177C6.90986 5.37904 6.95123 5.41982 7.00302 5.46735ZM5.45475 5.7223C5.21035 5.72419 4.98596 5.79387 4.78979 5.93457C4.2221 6.34211 4.05689 6.90413 4.17306 7.56176C4.27635 8.14619 4.58568 8.62989 4.9761 9.06632C5.53365 9.68992 6.21778 10.1566 6.93973 10.5728C6.97178 10.5911 7.03617 10.5847 7.07096 10.5649C7.65975 10.2293 8.22059 9.85385 8.71129 9.38636C9.18473 8.93561 9.5831 8.43247 9.77023 7.79645C9.93462 7.23767 9.9001 6.70617 9.52913 6.22517C9.08911 5.65451 8.32881 5.5535 7.78743 6.01236C7.62797 6.14739 7.50796 6.32915 7.37508 6.49308C7.17206 6.74371 6.82493 6.74587 6.62465 6.49308C6.57999 6.43664 6.543 6.37425 6.49971 6.31673C6.23861 5.96995 5.91503 5.72851 5.45475 5.7223Z" fill="#9100F2"/>
<path d="M1.69574 3.13576C2.6259 3.13981 3.381 3.88412 3.38291 4.79831C3.38483 5.71575 2.61933 6.46654 1.68533 6.4633C0.749681 6.46033 -0.00650661 5.70845 -0.00020504 4.78805C0.00609653 3.87332 0.76749 3.13171 1.69574 3.13576ZM1.69026 4.06021C1.27929 4.06048 0.943386 4.38727 0.936811 4.79318C0.930235 5.19559 1.27929 5.54236 1.69108 5.54236C2.10534 5.54236 2.44535 5.20261 2.44097 4.79264C2.43658 4.38484 2.1037 4.05994 1.69026 4.06021Z" fill="#9100F2"/>
</svg>
