<svg width="24" height="24" viewBox="0 0 24 24" fill="none" xmlns="http://www.w3.org/2000/svg">
<path d="M11 7.75H13V6.25H11V7.75ZM16.4 20.25H7.6V21.75H16.4V20.25ZM16.25 11V20.4H17.75V11H16.25ZM7.75 20.4V11H6.25V20.4H7.75ZM7.6 20.25C7.68284 20.25 7.75 20.3172 7.75 20.4H6.25C6.25 21.1456 6.85442 21.75 7.6 21.75V20.25ZM16.4 21.75C17.1456 21.75 17.75 21.1456 17.75 20.4H16.25C16.25 20.3172 16.3172 20.25 16.4 20.25V21.75ZM13 7.75C14.7949 7.75 16.25 9.20507 16.25 11H17.75C17.75 8.37665 15.6234 6.25 13 6.25V7.75ZM11 6.25C8.37665 6.25 6.25 8.37665 6.25 11H7.75C7.75 9.20507 9.20507 7.75 11 7.75V6.25Z" fill="#9100F2"/>
<path d="M7 12.25C6.58579 12.25 6.25 12.5858 6.25 13C6.25 13.4142 6.58579 13.75 7 13.75V12.25ZM17 13.75C17.4142 13.75 17.75 13.4142 17.75 13C17.75 12.5858 17.4142 12.25 17 12.25V13.75ZM7 13.75H17V12.25H7V13.75Z" fill="#9100F2"/>
<path d="M11.25 7C11.25 7.41421 11.5858 7.75 12 7.75C12.4142 7.75 12.75 7.41421 12.75 7H11.25ZM9 2.25C8.58579 2.25 8.25 2.58579 8.25 3C8.25 3.41421 8.58579 3.75 9 3.75V2.25ZM13 3.75C13.4142 3.75 13.75 3.41421 13.75 3C13.75 2.58579 13.4142 2.25 13 2.25V3.75ZM12.75 7V3H11.25V7H12.75ZM12 2.25H9V3.75H12V2.25ZM12 3.75H13V2.25H12V3.75Z" fill="#9100F2"/>
</svg>
