<svg width="24" height="24" viewBox="0 0 24 24" fill="none" xmlns="http://www.w3.org/2000/svg">
<path d="M6 20L18 20" stroke="#4F00D6" stroke-width="1.5" stroke-linecap="round" stroke-linejoin="round"/>
<path d="M11.25 16C11.25 16.4142 11.5858 16.75 12 16.75C12.4142 16.75 12.75 16.4142 12.75 16H11.25ZM12 4L12.5303 3.46967C12.2374 3.17678 11.7626 3.17678 11.4697 3.46967L12 4ZM14.9697 8.03033C15.2626 8.32322 15.7374 8.32322 16.0303 8.03033C16.3232 7.73744 16.3232 7.26256 16.0303 6.96967L14.9697 8.03033ZM7.96967 6.96967C7.67678 7.26256 7.67678 7.73744 7.96967 8.03033C8.26256 8.32322 8.73744 8.32322 9.03033 8.03033L7.96967 6.96967ZM12.75 16V4H11.25V16H12.75ZM11.4697 4.53033L14.9697 8.03033L16.0303 6.96967L12.5303 3.46967L11.4697 4.53033ZM11.4697 3.46967L7.96967 6.96967L9.03033 8.03033L12.5303 4.53033L11.4697 3.46967Z" fill="#4F00D6"/>
</svg>
