<svg width="24" height="24" viewBox="0 0 24 24" fill="none" xmlns="http://www.w3.org/2000/svg">
<path d="M4.25 20C4.25 20.4142 4.58579 20.75 5 20.75C5.41421 20.75 5.75 20.4142 5.75 20H4.25ZM18.25 20C18.25 20.4142 18.5858 20.75 19 20.75C19.4142 20.75 19.75 20.4142 19.75 20H18.25ZM4.25 19V20H5.75V19H4.25ZM19.75 20V19H18.25V20H19.75ZM19.75 19C19.75 14.7198 16.2802 11.25 12 11.25V12.75C15.4518 12.75 18.25 15.5482 18.25 19H19.75ZM5.75 19C5.75 15.5482 8.54822 12.75 12 12.75V11.25C7.71979 11.25 4.25 14.7198 4.25 19H5.75Z" fill="#4F00D6"/>
<path d="M12 12C14.2091 12 16 10.2091 16 8C16 5.79086 14.2091 4 12 4C9.79086 4 8 5.79086 8 8C8 10.2091 9.79086 12 12 12Z" stroke="#4F00D6" stroke-width="1.5" stroke-linecap="round" stroke-linejoin="round"/>
</svg>
